<svg xmlns="http://www.w3.org/2000/svg" viewBox="0 0 26.84 26.84"><defs><style>.cls-1{fill:#272525;}.cls-2{fill:#b82537;}.cls-3{fill:#fff;}.cls-4{fill:none;}</style></defs><title>Asset 5</title><g id="Layer_2" data-name="Layer 2"><g id="Layer_1-2" data-name="Layer 1"><path class="cls-1" d="M13.42,26.84A13.42,13.42,0,1,0,0,13.42,13.43,13.43,0,0,0,13.42,26.84"/><path class="cls-2" d="M19.69,9.4s-.54-.44-.91.65c0,0-.21.59-.24.63s-4.41-.08-5.3,0c-.07,0-4.36,0-4.71.21a2.71,2.71,0,0,1-1-1.5s-1-.54-.9.48C6.66,9.78,8,17,8.45,18.16c0,0,7.06,1.78,10.11-.56a80.69,80.69,0,0,0,1.13-8.2"/><path d="M7.05,10.42c.11.2.31.3.44.22s.14-.29,0-.49-.3-.29-.43-.22-.14.29,0,.49"/><path d="M18.94,10c-.09.21-.06.43.08.49s.32-.06.41-.27.05-.42-.08-.48-.32.06-.41.26"/><path d="M9.13,12.53c-.14-.26-.64-1.59-.66-1.64l.11,0s.52,1.37.65,1.63Z"/><path d="M10.62,12.23l-.11,0A4.73,4.73,0,0,0,10,10.77l.11,0a4.84,4.84,0,0,1,.48,1.51"/><polygon points="11.54 12.14 11.42 10.71 11.53 10.69 11.66 12.13 11.54 12.14"/><path d="M17.52,11.81l-.1-.07a7.26,7.26,0,0,0,.47-1.09l.11,0a10.71,10.71,0,0,1-.48,1.12"/><polygon points="16.18 11.81 16.08 11.77 16.55 10.63 16.66 10.67 16.18 11.81"/><polygon points="12.86 11.96 12.85 10.65 12.97 10.65 12.97 11.96 12.86 11.96"/><polygon points="14.2 11.92 14.09 11.91 14.17 10.63 14.29 10.64 14.2 11.92"/><path d="M15.2,11.92l-.07-.09a6.27,6.27,0,0,0,.32-1.2l.11,0a4.81,4.81,0,0,1-.36,1.27"/><path d="M9.41,18.4c-.59-.39-1.53-5.68-1.57-5.9l.11,0C8.22,14,9,18,9.48,18.31Z"/><path d="M11,18.63c-.85-.95-1.11-5.1-1.12-5.28H10s.26,4.29,1.09,5.2Z"/><path d="M17.76,18.13l-.11-.05c.19-.44,1.62-8.69,1.64-8.77l.11,0c-.06.34-1.45,8.34-1.64,8.8"/><path d="M16.92,18.48l0-.11h0c.1-.18.56-3.74.84-6.09l.11,0s-.18,1.53-.38,3c-.4,3.1-.45,3.11-.51,3.13"/><path d="M14.87,18.75l-.1-.06a35.06,35.06,0,0,0,.33-5.28h.12a39.36,39.36,0,0,1-.35,5.34"/><polygon points="14.03 18.71 13.91 18.71 14.03 13.67 14.14 13.68 14.03 18.71"/><path d="M13,18.77a18.92,18.92,0,0,1-.37-5.09h.11a19.55,19.55,0,0,0,.37,5Z"/><path d="M11.87,18.74a16.87,16.87,0,0,1-.75-5.1h.11A16.93,16.93,0,0,0,12,18.7Z"/><path d="M8.43,12.52A8.57,8.57,0,0,1,7,9.3l.11,0a8.73,8.73,0,0,0,1.45,3.17Z"/><path class="cls-3" d="M18.27,11.68s-.07-.39-2.71.06a7.46,7.46,0,0,0-2.64.22,2.25,2.25,0,0,0-1.87.19s-.56-.48-1.4.21c0,0-2-.5-2.18-.31,0,0,.83,1.5,4.9,1.62,0,0,4.56.37,5.9-2"/><path d="M13.87,18.83a28.18,28.18,0,0,1-5.43-.61h0L6.83,11a2.3,2.3,0,0,1-.09-.73c-.14-.46-.13-.77,0-.93s.77,0,.79,0h0v0s.32,1.13.93,1.45c.2,0,2.17-.23,6.13-.23.13,0,3.31,0,3.69,0l.16,0a2.21,2.21,0,0,1,.65-1.31.61.61,0,0,1,.53-.06h0v0a74.81,74.81,0,0,1-1.11,8.29v0h0c-1.06.92-2.9,1.19-4.73,1.19M8.5,18.11c.56.12,7.54,1.57,10-.54a76.84,76.84,0,0,0,1.11-8.2.42.42,0,0,0-.38.06c-.49.31-.64,1.43-.64,1.44-.41,2.84-5.11,2.87-5.18,2.87-2.89.08-4.89-.46-5.94-1.6a3.78,3.78,0,0,1-.41-.56ZM7.13,9.34a.37.37,0,0,0-.27.09c-.13.12-.14.41,0,.81v0h0a2.49,2.49,0,0,0,.7,1.79c.71.77,2.31,1.67,5.86,1.56.06,0,4.67,0,5.07-2.77a.58.58,0,0,1,0-.1l-.16,0c-.37-.06-3.64,0-3.67,0a60.54,60.54,0,0,0-6.14.23h0a2.76,2.76,0,0,1-1-1.51,1.28,1.28,0,0,0-.38-.07"/><path d="M13.58,15.27a21.16,21.16,0,0,1-6-.92l0-.11c.08,0,7.21,2.35,11.51-.5l.06.09a10.16,10.16,0,0,1-5.64,1.44"/><path d="M13.63,17.32A21.1,21.1,0,0,1,8,16.48l0-.11c.07,0,6.8,2.15,10.85-.45l.06.1a9.89,9.89,0,0,1-5.3,1.3"/><path d="M16.09,18.62l-.11,0c.36-2.1.57-5.52.57-5.55h.11s-.21,3.45-.57,5.56"/><path d="M10,18.49C9.63,18,8.83,13.23,8.8,13h.11a31.67,31.67,0,0,0,1.22,5.41Z"/><rect class="cls-4" x="3.7" y="3.06" width="19.43" height="16.88"/></g></g></svg>