<svg xmlns="http://www.w3.org/2000/svg" viewBox="0 0 26.43 26.43"><defs><style>.cls-1{fill:#272525;}.cls-2{fill:#b82537;}.cls-3{fill:#fff;}.cls-4{fill:none;}</style></defs><title>Asset 4</title><g id="Layer_2" data-name="Layer 2"><g id="Layer_1-2" data-name="Layer 1"><path class="cls-1" d="M13.22,26.43A13.22,13.22,0,1,0,0,13.21,13.23,13.23,0,0,0,13.22,26.43"/><path class="cls-2" d="M19.8,16.19s2.33-4.47-2.06-4.41c0,0-.92-.14-3.31,1.56a2.7,2.7,0,0,1-3.22,0s-1-1,.14-2.6a2.35,2.35,0,0,0,0-2.23.36.36,0,0,1,.38-.41A2,2,0,0,0,13,6.31s0-.85-.68,0c0,0-.13.38-1.27.31,0,0-.89-.06-1.06,1.41A1,1,0,0,0,8.49,8s-.57.69-.82.74c0,0-.45,0-.62-.13,0,0-.54-.26-.29.38,0,0,.65,1.6,2.25.43,0,0,.64-.69.84-.28,0,0-.87.81-1.41,1.37a5.61,5.61,0,0,0-.9,4.66,5.88,5.88,0,0,0,2.13,3.37s-.35,1-.91,1.23a1,1,0,0,1-.65.25s-.55.36.06.38a3.42,3.42,0,0,0,3-1S18.32,21,19.8,16.19"/><path class="cls-3" d="M12.9,14.74a.33.33,0,0,0,.35.29.3.3,0,1,0,0-.58.33.33,0,0,0-.35.29"/><path d="M13.23,14.8a.11.11,0,0,0,.12.1.12.12,0,0,0,.13-.1c0-.06-.06-.1-.13-.1s-.12,0-.12.1"/><path d="M10.06,8.49a1.08,1.08,0,0,0-1.31-.14l0-.06a1.16,1.16,0,0,1,1.39.16Z"/><path d="M9.32,8.72l0-.06a.91.91,0,0,1,.89-.06l0,.06a.83.83,0,0,0-.81.06"/><path d="M10.29,8.92c-.17-.22-.65-.09-.65-.09l0-.07s.52-.14.72.12Z"/><path d="M10.28,8.39a1.3,1.3,0,0,1,.85-1.54v.07a1.2,1.2,0,0,0-.8,1.46Z"/><path d="M10.58,8.42h-.07a1.18,1.18,0,0,1,.8-1.25v.06a1.13,1.13,0,0,0-.74,1.19"/><path d="M10.66,8.76a1,1,0,0,1,.5-1v.07a1,1,0,0,0-.44.9Z"/><path class="cls-3" d="M20.35,13.24S19.58,12,17,14.7c0,0-1,1.09-1.21,1.48a3,3,0,0,1-2.12.59l-.29,0a4.29,4.29,0,0,1-1.91,2.68,10.29,10.29,0,0,0,6.17-.65,4,4,0,0,0,2-2.31s.36-.81.47-1.2a4.34,4.34,0,0,0,.18-2"/><path d="M17.77,19.23l-.05,0c2-2.38,2.07-6.17,2.07-6.21h.06s0,3.85-2.08,6.25"/><path d="M16.06,19.62l0-.06c3.06-1.39,3-6.34,3-6.38h.06s0,5-3.07,6.44"/><path d="M15.26,19.81l0-.06c2.78-1.71,3-6.19,3-6.23h.06s-.26,4.56-3.07,6.29"/><path d="M14.52,19.81l0-.06c2.78-1.77,2.81-5.32,2.81-5.36h.07s0,3.63-2.84,5.42"/><path d="M13.51,19.81l0-.06c2.24-.61,2.8-4.19,2.81-4.23h.06s-.57,3.66-2.85,4.28"/><path d="M12.68,19.81v-.06c1.84-.3,2.71-3.26,2.72-3.29l.06,0s-.89,3-2.77,3.33"/><path d="M12.06,19.81v-.06c1.91-.25,2.67-3,2.68-3.06l.06,0s-.78,2.85-2.73,3.1"/><path d="M11.74,19.81v-.06c.55-.12,1.4-.7,2.28-2.81,0-.07,0-.1,0-.11l.06,0s0,.05,0,.11c-.88,2.13-1.75,2.72-2.32,2.84"/><path d="M11.15,19.54v-.06c1.58-.21,2.21-2.62,2.22-2.64h.06s-.64,2.48-2.27,2.69"/><path d="M14,16.9l-.46,0c-.17,0-1.9.11-2.29-1.21l.25-.07c.34,1.16,2,1,2,1h0a2.56,2.56,0,0,0,2.15-.53c1.73-2.3,3.12-3.41,4.12-3.29a1.06,1.06,0,0,1,.83.58l-.24.1.12-.05-.12.05a.8.8,0,0,0-.62-.43c-.63-.07-1.81.43-3.89,3.2A2.47,2.47,0,0,1,14,16.9"/><rect class="cls-4" x="6.51" y="4.73" width="16.64" height="18.85"/></g></g></svg>