<svg xmlns="http://www.w3.org/2000/svg" viewBox="0 0 27.32 27.32"><defs><style>.cls-1{fill:#272525;}.cls-2{fill:#fff;}.cls-3{fill:#b82537;}.cls-4{fill:none;}</style></defs><title>Asset 10</title><g id="Layer_2" data-name="Layer 2"><g id="Layer_1-2" data-name="Layer 1"><path class="cls-1" d="M13.66,27.32A13.66,13.66,0,1,0,0,13.66,13.68,13.68,0,0,0,13.66,27.32"/><rect class="cls-2" x="8.74" y="7.94" width="10.35" height="11.55"/><rect class="cls-3" x="8.51" y="12.82" width="10.74" height="0.47"/><rect class="cls-3" x="13.64" y="7.68" width="0.47" height="12.14"/><rect x="9.86" y="10.37" width="2.74" height="0.12" transform="translate(-4.09 11) rotate(-45.02)"/><rect x="10.52" y="11.12" width="1.85" height="0.11" transform="translate(-4.55 11.27) rotate(-44.65)"/><rect x="9.88" y="9.63" width="1.85" height="0.11" transform="translate(-3.69 10.49) rotate(-45.02)"/><polygon points="15.8 17.58 15.72 17.5 17.66 15.56 17.74 15.64 15.8 17.58"/><rect x="16.02" y="17.25" width="1.84" height="0.11" transform="translate(-7.28 17.06) rotate(-45.02)"/><rect x="15.39" y="15.77" width="1.84" height="0.11" transform="translate(-6.42 16.04) rotate(-44.68)"/><rect class="cls-3" x="8.19" y="7.34" width="0.68" height="12.48"/><rect class="cls-3" x="18.98" y="7.6" width="0.68" height="12.23"/><rect class="cls-3" x="8.35" y="19.15" width="11.11" height="0.68"/><rect class="cls-3" x="8.32" y="7.34" width="11.33" height="0.67"/><rect class="cls-4" x="3.76" y="3.25" width="19.8" height="18.3"/></g></g></svg>