<svg xmlns="http://www.w3.org/2000/svg" viewBox="0 0 27.56 27.56"><defs><style>.cls-1{fill:#b82537;}.cls-2{fill:#fff;}.cls-3{fill:#272525;}.cls-4{fill:none;}</style></defs><title>Asset 7</title><g id="Layer_2" data-name="Layer 2"><g id="Layer_1-2" data-name="Layer 1"><path class="cls-1" d="M15.24,14.83s.64,4.5,1,4.5l.41-.13-.84-4.53Z"/><path class="cls-1" d="M11.76,14.71a43.18,43.18,0,0,0-.17,4.79.15.15,0,0,0,0,.07.14.14,0,0,0,0,.07.1.1,0,0,0,.05.08l.48-.1.17-5Z"/><path class="cls-2" d="M15.49,7.25s-.4-1.55-1.75-.75c0,0,1.25-1.52-.23-2.41,0,0-2.24-.73-1.46,1.75,0,0-.7,1-.24,1.53,0,0,.19.5-.05.57a.37.37,0,0,1-.36,0,4.83,4.83,0,0,1-.88,2.47L9.41,11l-.06,0-.13.07s-1.72-.63-.94,1.24a1.54,1.54,0,0,0,.79-.25h.28a3.5,3.5,0,0,0,2.42-.86s-.93,3.69-.66,4.35c0,0,1.39.56,2,.08,0,0,.29-2.77.41-3.13,0,0,.83,3.44,1.63,3.09,0,0,1.23-.13,1.14-.72a8.76,8.76,0,0,0-.86-2.55s-.14-.49-.26-1a2.86,2.86,0,0,1-.16-1"/><path d="M11.89,9.38s-.05,1.57-.12,1.87.24,1,1.7.86,1.53-.25,1.77-.41-.11-2.12-.11-2.12l-.38-3.42-.28.11-.93-.11L12.17,7"/><path class="cls-1" d="M8.75,7.1a11.39,11.39,0,0,1,.1-1.67S8.7,4,8,4.61A2.64,2.64,0,0,0,8,5.75l.13.35.16,1.37,0,3,.16,1.68L8.81,14,9,15.11a10.34,10.34,0,0,1,.16,1.72,17.14,17.14,0,0,0,.58,2.94s.75.14.09-1.48a10.12,10.12,0,0,1-.2-1.84s-.12-1.74-.17-2.15c0,.21-.36-2.28-.39-2.75Z"/><path class="cls-1" d="M11.89,4.78a1.9,1.9,0,0,1,2.6-1.69s1.6.74,1.19,1.19c0,0-1.12.13-1.11.35L14.21,5S13,3.84,11.89,4.78"/><path class="cls-2" d="M14.2,4.65s.21.26.17.33,0,.1-.15.15-.06.12-.21.07a3.38,3.38,0,0,0-.87-.15C13,5.07,11.88,5,11.88,5s-.19,0-.19-.11.1-.16.16-.19A.3.3,0,0,0,12,4.53a.46.46,0,0,1,.28-.12s.11,0,.22,0,.13-.17.25-.13.26,0,.33.1.25,0,.31.07.74.19.79.23"/><path class="cls-1" d="M9.25,12.1s0-.71,0-1-.38-.1-.5-.1-.58-.1-.55,0-.56.63.11,1.3c0,0,.71,0,1-.24"/><path class="cls-1" d="M16,11.62h0l.1.2c.21.41.18.68.32.87.43.61.73.43.75-.07a5.49,5.49,0,0,0-.19-1.26"/><path class="cls-1" d="M16.08,11.69c-.08.26-.29.17-.3.35s0,.27.14.26a.77.77,0,0,0,.42-.31c.07-.11.16,0,.18-.06s-.2-.27-.2-.27Z"/><path class="cls-1" d="M16.89,11.91c.22-.09.31.14.42,0s.17-.18.08-.29a.8.8,0,0,0-.5-.17c-.12,0-.13-.12-.16-.11a1.37,1.37,0,0,0,0,.34Z"/><path class="cls-1" d="M11.32,8a1,1,0,0,0,.22.89c.39.5.24.5.46.62s.27.24.55.06.47-.14.73-.37a2.89,2.89,0,0,0,.6-.66c0-.12.43-.58.43-.9s0-1,0-1.12a.48.48,0,0,0-.07-.18l-1.51.26Z"/><path class="cls-2" d="M11.84,6.45s-.85.49-.71.91a5,5,0,0,0,.21.7s.74.91.81,1,.13.36.47-.15.46-.63.73-.71.33.07.52-.29.28-.52.17-.69a1,1,0,0,1,0-.73c.07-.17-.07-.37-.06-.44a2.35,2.35,0,0,0,0-.46"/><path class="cls-1" d="M12.36,9.59s.13.13,0,.52a3.42,3.42,0,0,0-.18.6c0,.16-.18.12.12.17a1.22,1.22,0,0,0,.57,0,1,1,0,0,1,.51,0c.15.05.27.08.26,0s-.16-.43-.19-.6a1.43,1.43,0,0,1,0-.42,4.37,4.37,0,0,0-.11-.78c0-.08-.93.44-.93.44"/><path class="cls-1" d="M13.16,9.44l.55.33.41-.21a2.86,2.86,0,0,0,.33-.2l-1-.69a4.88,4.88,0,0,0-.62.52c0,.06.31.25.31.25"/><path class="cls-2" d="M15.13,9.58h0s.25-3-.2-3.17c0,0,1.71,2.32,1.81,3.88.06.8.36,1.21.06,1.34a1.73,1.73,0,0,1-.85,0,1.41,1.41,0,0,1-.36-1.06c0-.45-.36-.72-.46-1"/><path class="cls-2" d="M13.13,11.29a.17.17,0,0,1-.16.17.17.17,0,0,1-.17-.17.16.16,0,0,1,.17-.17.16.16,0,0,1,.16.17"/><path class="cls-2" d="M14,11.27a.17.17,0,1,1-.34,0,.17.17,0,1,1,.34,0"/><path class="cls-2" d="M13.86,10.28a.17.17,0,1,1-.17-.17.18.18,0,0,1,.17.17"/><path class="cls-1" d="M11.62,19.64a.34.34,0,0,0,.38.19c.25-.08.15-.19.16-.39s-.32-.3-.32-.3l-.23.46Z"/><path class="cls-1" d="M16.12,19.16a.32.32,0,0,0,.24.34c.26.06.18.05.28-.12s-.14-.74-.14-.74l-.37.48Z"/><path class="cls-3" d="M13.78,27.56A13.78,13.78,0,1,0,0,13.78,13.79,13.79,0,0,0,13.78,27.56"/><path class="cls-2" d="M16,12.05s1,1.45.37,1.93c0,0,.18.74-.91.79,0,0-.81-.34-.73-1.08,0,0,.54-2.07,1.27-1.64"/><path class="cls-1" d="M13.27,18.17s0,.89,0,1,1.11.93,2,.75c0,0,.42-.21.43-.41-.05,0-.78,0-.88-.34A3.44,3.44,0,0,1,14.51,18Z"/><path class="cls-1" d="M11.82,18.34s.12,1,0,1.07-.46.15-.48.24.28.92,1.63-.06c0,0,.23-.21.21-.35l-.12-1Z"/><path class="cls-2" d="M10.64,14.77a4.44,4.44,0,0,0,1.2,3.43s1.31.86,1.76,0v-.93h-.43l.13,1.09s1,.35,1.51-.28a4.8,4.8,0,0,0,.6-2.7Z"/><path class="cls-2" d="M10.64,13.82s-1.21-.9.91-2.59c0,0,1,1.77.35,2.06,0,0-.72,1.11-1.26.53"/><path d="M12.36,11s-.69-.42-.93-.18c0,0,.47,1.84-.23,2.19a7.47,7.47,0,0,1-.83,1.35,3.78,3.78,0,0,0,5.32.8s-.47-2.45.53-3.42a2,2,0,0,1-.79-.19s-.42.81-2.15.93A4.49,4.49,0,0,1,12.36,11"/><path class="cls-2" d="M12.66,13.13a.19.19,0,0,0,.19.19.2.2,0,0,0,.19-.19.2.2,0,0,0-.19-.2.19.19,0,0,0-.19.2"/><path class="cls-2" d="M12.3,14a.19.19,0,0,0,.19.2.2.2,0,0,0,.19-.2.19.19,0,0,0-.19-.19.18.18,0,0,0-.19.19"/><path class="cls-2" d="M12.12,14.9a.19.19,0,0,0,.19.2.2.2,0,0,0,0-.4.19.19,0,0,0-.19.2"/><path class="cls-2" d="M13.2,14.19a.19.19,0,1,0,.19-.2.19.19,0,0,0-.19.2"/><path class="cls-2" d="M13,15.08a.18.18,0,0,0,.19.19.19.19,0,0,0,.19-.19.2.2,0,0,0-.19-.2.19.19,0,0,0-.19.2"/><path class="cls-2" d="M13.56,13.3a.2.2,0,0,0,.19.2.19.19,0,0,0,.19-.2.18.18,0,0,0-.19-.19.19.19,0,0,0-.19.19"/><path class="cls-2" d="M14,8.5a2.28,2.28,0,0,0-1,.77s-.38,0-.38.69c0,0-1.13,1.11.65,2.54a2.58,2.58,0,0,0,2.15-.93l.17-.34s.8-.77.13-.73c0,0,.75-2.61-1.71-2"/><path class="cls-1" d="M16.22,10.62s1.26-4.08-2.72-3.56a6.64,6.64,0,0,0-2.36.63,2,2,0,0,0-.8,1.49,7.05,7.05,0,0,0,1.53-.36s1-.31.87.39a7.69,7.69,0,0,0,3.48,1.41"/><path class="cls-1" d="M15.65,19.48s-.75-.08-.86-.24l-.28.12.3.21.6.1.29-.07s.05-.07,0-.12"/><path class="cls-1" d="M11.31,19.5a3,3,0,0,1,.55-.19,1.15,1.15,0,0,1,.23.1.76.76,0,0,1-.18.16l-.48.27s-.19-.06-.19-.1a.6.6,0,0,1,.07-.24"/><path class="cls-2" d="M16.45,13.08s.49,1.31-.45,1.56"/><path class="cls-2" d="M13.24,19.14s-.43.92,1,.95c0,0,1.77.53,2.24.06,0,0,.5-.49-.86-.67,0,0-.83.52-2.41-.34"/><path class="cls-2" d="M11.31,19.5s.78.81,1.84-.41c0,0,.38.51-.45.9a3.05,3.05,0,0,1-1.13.66s-1.53.09-.65-.78Z"/><rect class="cls-4" x="4.03" y="4.99" width="19.98" height="17.18"/></g></g></svg>