<svg xmlns="http://www.w3.org/2000/svg" viewBox="0 0 27.33 27.33"><defs><style>.cls-1{fill:#272525;}.cls-2{fill:#b82537;}.cls-3{fill:#fff;}.cls-4{fill:none;}</style></defs><title>Asset 11</title><g id="Layer_2" data-name="Layer 2"><g id="Layer_1-2" data-name="Layer 1"><path class="cls-1" d="M13.67,27.33A13.67,13.67,0,1,0,0,13.67,13.68,13.68,0,0,0,13.67,27.33"/><path class="cls-2" d="M15.76,17s.65,4.55,1,4.55l.42-.13-.85-4.58Z"/><path class="cls-2" d="M12.25,16.85a43.69,43.69,0,0,0-.18,4.85.17.17,0,0,0,0,.07.64.64,0,0,0,0,.07.12.12,0,0,0,.05.08l.49-.1.17-5Z"/><path class="cls-3" d="M16,9.31s-.41-1.57-1.77-.77c0,0,1.26-1.53-.24-2.44,0,0-2.26-.73-1.48,1.78,0,0-.7,1-.23,1.55,0,0,.19.5-.05.57a.39.39,0,0,1-.37,0A4.88,4.88,0,0,1,11,12.46l-1.12.64-.07,0-.12.07s-1.75-.63-1,1.26a1.53,1.53,0,0,0,.8-.26h.29a3.5,3.5,0,0,0,2.44-.86s-.94,3.73-.66,4.4c0,0,1.4.57,2,.08,0,0,.29-2.8.41-3.16,0,0,.84,3.47,1.65,3.12,0,0,1.25-.13,1.16-.73A9.07,9.07,0,0,0,16,14.48s-.15-.5-.27-1a3.23,3.23,0,0,1-.16-1"/><path d="M12.37,11.46s0,1.59-.12,1.89.24,1,1.72.86,1.55-.25,1.79-.41-.11-2.14-.11-2.14l-.38-3.47L15,8.31l-1-.12-1.39.86"/><path class="cls-2" d="M9.2,9.15a11.69,11.69,0,0,1,.1-1.69S9.15,6,8.47,6.63A2.82,2.82,0,0,0,8.4,7.78l.14.36.17,1.39,0,3,.16,1.7.35,1.88.17,1.17A10.48,10.48,0,0,1,9.58,19a16.87,16.87,0,0,0,.59,3s.76.14.09-1.5a10.27,10.27,0,0,1-.2-1.86s-.12-1.76-.18-2.18c0,.22-.35-2.31-.39-2.78Z"/><path class="cls-2" d="M12.37,6.8A1.92,1.92,0,0,1,15,5.1s1.61.74,1.2,1.19c0,0-1.13.13-1.13.36,0,0-.36.38-.36.37s-1.25-1.17-2.35-.22"/><path class="cls-3" d="M14.71,6.67s.22.26.17.33,0,.11-.14.15-.07.13-.22.07a3,3,0,0,0-.88-.14c-.13,0-1.27-.1-1.27-.1s-.2,0-.2-.1.11-.17.17-.2a.34.34,0,0,0,.17-.13.46.46,0,0,1,.28-.12l.22,0c.11,0,.13-.17.26-.12s.26,0,.33.1.25,0,.31.06.75.2.8.24"/><path class="cls-2" d="M9.7,14.21s0-.71,0-1-.39-.1-.51-.1-.59-.09-.56,0-.56.65.11,1.33c0,0,.72,0,1-.25"/><path class="cls-2" d="M16.48,13.72h0l.11.21c.21.41.18.68.32.88.44.61.74.43.76-.07a5.06,5.06,0,0,0-.2-1.28"/><path class="cls-2" d="M16.62,13.79c-.09.26-.3.18-.31.35s0,.28.14.27a.81.81,0,0,0,.43-.32c.07-.11.16,0,.17-.06s-.19-.27-.19-.27Z"/><path class="cls-2" d="M17.43,14c.22-.09.32.15.43,0s.17-.18.07-.29a.8.8,0,0,0-.5-.17c-.12,0-.13-.12-.16-.11a1.37,1.37,0,0,0,0,.34Z"/><path class="cls-2" d="M11.8,10a.93.93,0,0,0,.22.9c.39.5.24.5.47.63s.27.24.56.05.47-.14.73-.36a3.23,3.23,0,0,0,.61-.67c0-.12.44-.59.44-.92s0-1,0-1.13a.63.63,0,0,0-.08-.18l-1.53.26Z"/><path class="cls-3" d="M12.33,8.49s-.86.5-.73.92a4.43,4.43,0,0,0,.22.71s.75.92.82,1,.13.37.47-.15.47-.63.74-.72.34.08.53-.29.28-.52.17-.7a1,1,0,0,1,0-.74c.07-.17-.07-.37-.06-.45a2.35,2.35,0,0,0,0-.46"/><path class="cls-2" d="M12.85,11.67s.14.13,0,.52a3.7,3.7,0,0,0-.18.61c0,.16-.19.13.12.17a1.22,1.22,0,0,0,.57,0,.87.87,0,0,1,.52,0c.15.05.27.08.26,0s-.16-.43-.19-.6a1.58,1.58,0,0,1,0-.43,4.53,4.53,0,0,0-.11-.79,5.06,5.06,0,0,0-.94.45"/><path class="cls-2" d="M13.66,11.52l.56.33.41-.21a2.86,2.86,0,0,0,.33-.2l-1-.7a4.26,4.26,0,0,0-.62.53c0,.06.31.25.31.25"/><path class="cls-3" d="M15.65,11.66h0s.25-3.06-.2-3.2c0,0,1.73,2.34,1.83,3.92.06.81.36,1.23.06,1.35a1.66,1.66,0,0,1-.86,0,1.42,1.42,0,0,1-.36-1.07c0-.45-.37-.73-.47-1"/><path class="cls-3" d="M13.63,13.39a.17.17,0,0,1-.17.17.18.18,0,0,1-.17-.17.17.17,0,0,1,.17-.17.16.16,0,0,1,.17.17"/><path class="cls-3" d="M14.51,13.37a.18.18,0,0,1-.17.17.17.17,0,0,1-.17-.17.16.16,0,0,1,.17-.17.17.17,0,0,1,.17.17"/><path class="cls-3" d="M14.37,12.37a.18.18,0,0,1-.17.17.18.18,0,0,1-.18-.17.17.17,0,0,1,.18-.17.17.17,0,0,1,.17.17"/><path class="cls-2" d="M12.1,21.84a.34.34,0,0,0,.38.19c.26-.08.16-.19.17-.4s-.32-.3-.32-.3l-.24.47Z"/><path class="cls-2" d="M16.65,21.35a.35.35,0,0,0,.25.35c.26.06.18.05.28-.13s-.14-.74-.14-.74l-.38.48Z"/><rect class="cls-4" x="3.76" y="4.24" width="19.8" height="19.53"/></g></g></svg>