<svg xmlns="http://www.w3.org/2000/svg" viewBox="0 0 27.55 27.55"><defs><style>.cls-1{fill:#272525;}.cls-2{fill:#b82737;}</style></defs><title>Asset 12</title><g id="Layer_2" data-name="Layer 2"><g id="Layer_1-2" data-name="Layer 1"><path class="cls-1" d="M13.77,27.55A13.78,13.78,0,1,0,0,13.77,13.79,13.79,0,0,0,13.77,27.55"/><path class="cls-2" d="M9,14.56c-.41-.63-1-.94-1.43-.69s-.36,1,0,1.59,1.05.93,1.43.68.36-1-.05-1.58"/><path class="cls-2" d="M6.6,16.65c-.34.3-.22,1,.27,1.56S8,19,8.38,18.7s.23-1-.26-1.57S7,16.35,6.6,16.65"/><path class="cls-2" d="M10.94,12.67c-.45.05-.75.7-.67,1.44s.53,1.31,1,1.25.75-.69.66-1.44-.52-1.3-1-1.25"/><path class="cls-2" d="M13.49,14.16c-.46,0-.84.59-.86,1.34s.35,1.36.8,1.37.84-.59.85-1.34-.34-1.36-.79-1.37"/><path class="cls-2" d="M12.31,17.25h0a1.59,1.59,0,0,0-2-1,1.6,1.6,0,0,0-.86,2.08,2.58,2.58,0,0,0-.3,2.11c.49,1.35,1.64,1.08,2.95.61s2.27-1,1.78-2.32a2.59,2.59,0,0,0-1.58-1.44"/><path class="cls-2" d="M16.86,8.53c.39,0,.76-.47.82-1.12s-.21-1.22-.61-1.25-.77.46-.83,1.12.22,1.21.62,1.25"/><path class="cls-2" d="M15,9.9c.4,0,.7-.57.67-1.22s-.38-1.18-.78-1.16-.7.57-.67,1.22.38,1.18.78,1.16"/><path class="cls-2" d="M20,8.53c.35-.56.35-1.18,0-1.39s-.89.07-1.24.63-.35,1.18,0,1.39.9-.07,1.24-.63"/><path class="cls-2" d="M21,9.55c-.31-.26-.9-.05-1.32.46s-.5,1.12-.19,1.37.89,0,1.31-.46.5-1.12.2-1.37"/><path class="cls-2" d="M18.46,11A1.29,1.29,0,1,0,16,10.17a2.2,2.2,0,0,0-1.32,1.25c-.38,1.15.52,1.54,1.65,1.92s2,.59,2.41-.57A2.19,2.19,0,0,0,18.46,11Z"/></g></g></svg>