<svg xmlns="http://www.w3.org/2000/svg" viewBox="0 0 27.03 27.03"><defs><style>.cls-1{fill:#272525;}.cls-2{fill:#b82537;}.cls-3{fill:#fff;}.cls-4{fill:none;}</style></defs><title>Asset 9</title><g id="Layer_2" data-name="Layer 2"><g id="Layer_1-2" data-name="Layer 1"><path class="cls-1" d="M13.52,27A13.52,13.52,0,1,0,0,13.51,13.53,13.53,0,0,0,13.52,27"/><path class="cls-2" d="M11,10.69c0,.9-2.67,2.54-2.67,5.25s1.6,5,5.1,5c4.91,0,5.16-3.92,5.16-4.89,0-4.86-7.35-4.63-3.32-7.84.81-.64-1.2.12-1.75.52s-.72-.25-1.33-.25-1.49,1-2.63.14C9,9.8,11,9.5,11,10.69"/><path class="cls-3" d="M16.56,11.57a5.18,5.18,0,0,1-2.52-1,7.87,7.87,0,0,1-2.61.32h-.52v-.47l.49,0a6,6,0,0,0,2.46-.31,2.71,2.71,0,0,1,1.66-1.25,1,1,0,0,1,1,.25.85.85,0,0,1,0,1.08,2,2,0,0,1-1.29.53,2,2,0,0,0,2.11.11,1.84,1.84,0,0,0,.73-.94c.19-.39.38-.8.86-.91l.11.48c-.24.06-.35.27-.52.63a2.35,2.35,0,0,1-.93,1.17,2.13,2.13,0,0,1-1.09.31M14.4,10.16a2.11,2.11,0,0,0,1.81-.29c.07-.09.13-.21,0-.46a.62.62,0,0,0-.55-.07,2.54,2.54,0,0,0-1.24.82"/><rect class="cls-4" x="3.73" y="2.83" width="19.57" height="19.3"/></g></g></svg>