<svg xmlns="http://www.w3.org/2000/svg" viewBox="0 0 27.03 27.03"><defs><style>.cls-1{fill:#272525;}.cls-2{fill:#fff;}.cls-2,.cls-3{fill-rule:evenodd;}.cls-3{fill:#b82537;}.cls-4{fill:none;}</style></defs><title>Asset 8</title><g id="Layer_2" data-name="Layer 2"><g id="Layer_1-2" data-name="Layer 1"><path class="cls-1" d="M13.52,27A13.52,13.52,0,1,0,0,13.51,13.53,13.53,0,0,0,13.52,27"/><path class="cls-2" d="M14.53,19.53a9.77,9.77,0,0,1-2.53.36,6.12,6.12,0,0,1-2.42-.43,3.81,3.81,0,0,1-1.3-1.62,3.93,3.93,0,0,1,.7-4c.16-.18.38-.33.53-.53a14.87,14.87,0,0,0,.93-2A2.4,2.4,0,0,1,10,9.7a3.12,3.12,0,0,0,.16-1.23c.16-.09.22-.27.4-.33.18.13.42.2.6.33a2.51,2.51,0,0,1,1.83,0,9.53,9.53,0,0,0,1.19-.9C14.3,8,14,8.44,14,8.9c0,.25.26.49.3.77a1.82,1.82,0,0,1-.4,1.46,3.43,3.43,0,0,1,.83,2.39,4.3,4.3,0,0,1,1.63,3.82c0,.21-.12.42-.14.66-.05.79-1.6.91-1.72,1.53"/><path class="cls-2" d="M14.26,19.59a18.1,18.1,0,0,1,2.19.82,2.54,2.54,0,0,0,3.33-2.2c0-.32-.15-.55,0-.88s.71-.22.91-.6a.48.48,0,0,0-.11-.61c-.49-.33-1.36.34-1.65,1.06-.2.5,0,.79-.11,1.16-.3,1.12-2.16.56-2.84-.27"/><path class="cls-3" d="M13.6,8s-.15-2.35-3.24-.39c0,0-.78.39-1.2,2.38,0,0-.2,1.1.92-.54l.39-.27S12.81,8.92,13.6,8"/><rect class="cls-4" x="3.73" y="1.98" width="19.58" height="19.3"/></g></g></svg>