<svg xmlns="http://www.w3.org/2000/svg" viewBox="0 0 27.55 27.55"><defs><style>.cls-1{fill:#272525;}.cls-2{fill:#b82537;}.cls-3{fill:#fff;fill-rule:evenodd;}.cls-4{fill:#cc3a54;}.cls-5{fill:none;}</style></defs><title>Asset 6</title><g id="Layer_2" data-name="Layer 2"><g id="Layer_1-2" data-name="Layer 1"><path class="cls-1" d="M13.77,27.55A13.78,13.78,0,1,0,0,13.77,13.79,13.79,0,0,0,13.77,27.55"/><path class="cls-2" d="M12.46,8.89V8.23l1.16.19-2.57,9.23S4.34,18.74,7.8,11.39c.13-.2,1.68-3.31,3.83-2.64Z"/><path class="cls-3" d="M18,8.28a1.66,1.66,0,0,0-.49-1.34,1,1,0,0,0-.29-.15,2.2,2.2,0,0,0-1.79-.16s-.79,0-1.07,1.15a3.76,3.76,0,0,0-1,.6s-.16.56-.08.52a9.2,9.2,0,0,0-2.73,6.65,3.21,3.21,0,0,1-1.23,2.77A1.58,1.58,0,0,0,8.46,20c0,.14-.38.68.32,1a1.16,1.16,0,0,0,.75.26c-.15,0,.22-.47-.13-1.23a2.22,2.22,0,0,1,1-1.12s1.63.75,6.38.76c0,0-.06,1.65.73,2.15h1.57s-.44-.91-1-1a6.64,6.64,0,0,0-.37-1.38s-.22-2.39-.16-3.18a5.1,5.1,0,0,0-.79-1.42,12.5,12.5,0,0,0-.39-1.61,7.09,7.09,0,0,0,2.41-.45s.22,0,.64.1L20,13s-.06.38.47.09c0,0,.57-1.09-1.6-1.15,0,0-1,.18-1.43-.14,0,0-.29.1-.54-1.22a.46.46,0,0,1,0-.45s0,0,.17-.14c-.13-.07.42-.11.67-.8a1,1,0,0,0,.8,0s.54-.47-.11-.67c0,0-.51.1-.5-.12Z"/><path class="cls-2" d="M14.33,7.36l2.6,2.58s.15.1.22,0h0c0-.25-.63-2.8.46-3.09a1.31,1.31,0,0,0-1.31-.75c-1,0-2,.62-2,.91a1.15,1.15,0,0,0,.06.39"/><path class="cls-4" d="M17,10l.09.23.27,0,.14-.09-.34-.22Z"/><rect class="cls-5" x="3.39" y="3.93" width="19.97" height="19.69"/></g></g></svg>