<svg xmlns="http://www.w3.org/2000/svg" viewBox="0 0 27.04 27.04"><defs><style>.cls-1{fill:#272525;}.cls-2{fill:#b82537;}.cls-3{fill:#fff;}.cls-4{fill:none;}</style></defs><title>door_slammer</title><g id="Layer_2" data-name="Layer 2"><g id="Layer_1-2" data-name="Layer 1"><path class="cls-1" d="M13.52,27A13.52,13.52,0,1,0,0,13.52,13.54,13.54,0,0,0,13.52,27"/><path class="cls-2" d="M18.81,20.49H9.07V6.7h9.74ZM9.86,19.7H18V7.49H9.86Z"/><rect class="cls-3" x="13.59" y="5.93" width="0.63" height="15.14"/><polygon class="cls-3" points="13.31 5.92 10.35 7.37 10.35 19.87 13.31 21.06 13.31 5.92"/><path d="M12.62,14.11a.47.47,0,0,0,.47.47.47.47,0,1,0,0-.94.47.47,0,0,0-.47.47"/><rect class="cls-4" x="3.73" y="2.45" width="19.58" height="19.31"/></g></g></svg>