<svg xmlns="http://www.w3.org/2000/svg" viewBox="0 0 27.03 27.03"><defs><style>.cls-1{fill:#272525;}.cls-2{fill:#b82537;}.cls-3{fill:none;}</style></defs><title>sausage_swiper</title><g id="Layer_2" data-name="Layer 2"><g id="Layer_1-2" data-name="Layer 1"><path class="cls-1" d="M13.52,27A13.52,13.52,0,1,0,0,13.51,13.53,13.53,0,0,0,13.52,27"/><path class="cls-2" d="M15.94,13.64a4,4,0,0,1-5.32-2,1,1,0,0,1,1.75-.79,2.11,2.11,0,0,0,2.79,1.06,1,1,0,0,1,.78,1.75"/><path class="cls-2" d="M17.94,14.37a4,4,0,0,1-4.28,3.76,1,1,0,0,1,.12-1.92,2.11,2.11,0,0,0,2.24-2,1,1,0,0,1,1.92.13"/><path class="cls-2" d="M9.68,9.21a4,4,0,0,1,4.39-3.62,1,1,0,0,1-.18,1.9,2.12,2.12,0,0,0-2.3,1.9,1,1,0,1,1-1.91-.18"/><path class="cls-2" d="M16.41,22a4,4,0,0,1-4.94-2.84,1,1,0,0,1,1.85-.5,2.13,2.13,0,0,0,2.59,1.49,1,1,0,0,1,1.17.67A1,1,0,0,1,16.41,22"/><path class="cls-2" d="M17,13.88a.2.2,0,0,1-.13,0,.24.24,0,0,1-.18-.27.39.39,0,0,0-.3-.46.23.23,0,0,1-.18-.26.22.22,0,0,1,.26-.17.83.83,0,0,1,.66,1,.21.21,0,0,1-.13.16"/><path class="cls-2" d="M14.27,7a.22.22,0,0,1-.3-.27.83.83,0,0,1,1-.55.22.22,0,0,1-.13.43.39.39,0,0,0-.49.26.2.2,0,0,1-.12.13"/><path class="cls-2" d="M11.1,10.86a.21.21,0,0,1-.19,0,.22.22,0,0,1-.1-.3.39.39,0,0,0-.18-.52.23.23,0,0,1-.1-.3.22.22,0,0,1,.3-.1.84.84,0,0,1,.38,1.12.35.35,0,0,1-.11.1"/><path class="cls-2" d="M12.32,18.23a.19.19,0,0,1-.1-.13.8.8,0,0,1,.07-.64.79.79,0,0,1,.5-.39.21.21,0,0,1,.27.15.21.21,0,0,1-.15.27.39.39,0,0,0-.23.19.37.37,0,0,0,0,.29.23.23,0,0,1-.16.28.2.2,0,0,1-.17,0"/><rect class="cls-3" x="4.52" y="5.38" width="19.57" height="19.3"/></g></g></svg>