<svg xmlns="http://www.w3.org/2000/svg" viewBox="0 0 27.36 27.36"><defs><style>.cls-1{fill:#272525;}.cls-2{fill:#fff;}.cls-3{fill:#b82537;}.cls-4{fill:#2a272a;}.cls-5{fill:none;}</style></defs><title>the_yule_lads_father</title><g id="Layer_2" data-name="Layer 2"><g id="Layer_1-2" data-name="Layer 1"><path class="cls-1" d="M13.68,27.36A13.68,13.68,0,1,0,0,13.68,13.7,13.7,0,0,0,13.68,27.36"/><path class="cls-2" d="M9.08,16s2.27,1.83,1.48,2.5l-1.21.93s.25.79.86.57c0,0,1.48-.87,1.17-2.25a2.25,2.25,0,0,0-.73-1.2A2.63,2.63,0,0,0,12.46,16s2,.77,1.8,1.12a21,21,0,0,1-1.1,1.91l.69.48s1.76-1.88,1-2.85a10.93,10.93,0,0,0-1.44-1.11S9.33,16,9.08,16"/><path class="cls-2" d="M10,20.15h0c-.5,0-.71-.63-.71-.66l0,0,1.25-1a.37.37,0,0,0,.14-.31c0-.77-1.6-2.06-1.62-2.08L9,16l.11,0c.26-.09,4.19-.44,4.36-.45h0a10.11,10.11,0,0,1,1.47,1.13c.77,1-.95,2.86-1,2.93l0,.05-.79-.56,0,0a19,19,0,0,0,1.09-1.9s0,0,0,0a4.67,4.67,0,0,0-1.72-1,2.54,2.54,0,0,1-1.64.54,2.44,2.44,0,0,1,.6,1.12c.32,1.4-1.18,2.31-1.19,2.32a.79.79,0,0,1-.25,0m-.57-.65c.05.13.24.51.57.51a.63.63,0,0,0,.19,0s1.42-.86,1.12-2.17a2.18,2.18,0,0,0-.7-1.17l-.18-.14.23,0h.17A2.48,2.48,0,0,0,12.42,16l0,0,0,0c.17.07,1.69.67,1.84,1.06a.18.18,0,0,1,0,.15c0,.06-.74,1.42-1.06,1.87l.58.4c.25-.28,1.62-1.88,1-2.71a10.56,10.56,0,0,0-1.4-1.09c-1,.09-3.57.32-4.19.42.37.31,1.56,1.37,1.56,2.09a.49.49,0,0,1-.19.42Z"/><path class="cls-3" d="M9.35,19.47l1.1-.84a.89.89,0,0,0,.18-.74l.79-.05a2.1,2.1,0,0,1-.91,2l-.3.31a2.09,2.09,0,0,1-.56,0l-.36-.33Z"/><path class="cls-3" d="M9.82,20.23c-.15,0-.19,0-.22,0l-.36-.33,0,0,.07-.39,1.11-.87a.82.82,0,0,0,.17-.66l0-.08.92-.06v.05a2.16,2.16,0,0,1-.93,2.06l-.31.33h0l-.4,0m-.12-.14h.12l.36,0,.28-.3a2.05,2.05,0,0,0,.9-1.87l-.65,0a1,1,0,0,1-.21.72l-1.09.84-.05.27.33.31h0"/><path class="cls-3" d="M13.16,19.07l.59-1,.5-.92a.26.26,0,0,0-.06-.24l.6-.31s.62.16.12,1.47a9,9,0,0,1-1.07,1.48s-.29,0-.31,0-.32-.26-.32-.26Z"/><path class="cls-3" d="M13.86,19.65h-.33s-.08,0-.37-.27v0l-.05-.3.59-1,.5-.91a.22.22,0,0,0,0-.17l-.07-.06.72-.37h0a.5.5,0,0,1,.27.26A1.69,1.69,0,0,1,15,18.14a8.68,8.68,0,0,1-1.09,1.5Zm-.24-.14h.2a8.92,8.92,0,0,0,1-1.44A1.59,1.59,0,0,0,15,16.89a.42.42,0,0,0-.17-.18l-.51.27a.32.32,0,0,1,0,.23h0l-.5.93-.58.93,0,.22a2.78,2.78,0,0,0,.26.22h.09"/><path class="cls-2" d="M9.31,19.43s-.38.11-.27,1a3.59,3.59,0,0,0,2.55.3s.82-.59-.15-.87a2.44,2.44,0,0,0-1-.07s-.76.63-1.16-.4"/><path class="cls-2" d="M13.15,19s-.34.18-.23,1.11a3.53,3.53,0,0,0,2.55.3s.82-.59-.15-.87a7.85,7.85,0,0,0-1.44,0Z"/><path class="cls-4" d="M13.91,15c0,.09.05.15.11.15s.11-.06.11-.15-.05-.15-.11-.15-.11.07-.11.15"/><path class="cls-4" d="M13.91,14.32c0,.08.05.15.11.15s.11-.07.11-.15-.05-.15-.11-.15-.11.06-.11.15"/><path class="cls-4" d="M13.91,13.52c0,.09.05.15.11.15s.11-.06.11-.15-.05-.15-.11-.15-.11.07-.11.15"/><path class="cls-2" d="M15.05,6.31s-2,.9-2.71,1.14l.71,3,.89.55,1-1.14,1.62-2.25Z"/><path class="cls-2" d="M14.49,7.55s4.45-.56,2.76,3.34c0,0,0,1.3,0,1.32a4.94,4.94,0,0,1-.5,1.46l-.76.16s-.79.18-.79,0c0,0-.72-.24-.59-.87a4.77,4.77,0,0,1-.7-1.8Z"/><path class="cls-3" d="M14.3,13.09a3.46,3.46,0,0,1,.14,2.4L8.87,16s-.75-6.95,3-8.43A3.45,3.45,0,0,1,13,7.25s.5,2.36.69,2.93c0,0,0,1.36.46,1.54Z"/><path class="cls-3" d="M9.79,15.77h0a2.61,2.61,0,0,0,0,.31c.07.63,0,1,0,1.27.23,1,.58.87.76.23a9,9,0,0,0,.21-1.74"/><path class="cls-3" d="M9.9,15.93c-.17.29-.35.1-.41.32s-.08.36,0,.41a.7.7,0,0,0,.52-.24c.1-.12.16,0,.19,0a2.24,2.24,0,0,0-.11-.43Z"/><path class="cls-3" d="M10.61,16.54c.25,0,.27.32.41.23s.22-.16.16-.35a.83.83,0,0,0-.43-.42c-.12,0-.09-.21-.12-.21s-.15.43-.15.43Z"/><path d="M10.42,9.92s-.21,5.89-.74,6h1.2s.41-5.5.41-6a1.69,1.69,0,0,0-.87,0"/><path class="cls-2" d="M10.28,8.86a15,15,0,0,1,.08-1.74s-.12-1.46-.64-.86a3.93,3.93,0,0,0-.05,1.19l.1.37L9.9,9.25l0,3.07.13,1.76L10.32,16l.13,1.2A13.91,13.91,0,0,1,10.57,19,23.32,23.32,0,0,0,11,22.08s.58.14.06-1.55a13.71,13.71,0,0,1-.15-1.92s-.09-1.82-.14-2.24c0,.22-.27-2.38-.29-2.87Z"/><path d="M14.05,15a.15.15,0,0,0,.15.15.14.14,0,0,0,.14-.15.15.15,0,0,0-.14-.15.15.15,0,0,0-.15.15"/><path d="M14.05,14.32a.15.15,0,0,0,.15.15.15.15,0,0,0,.14-.15.14.14,0,0,0-.14-.15.15.15,0,0,0-.15.15"/><path d="M13,6.93,13.63,10A7.21,7.21,0,0,0,14.48,12l-.21.9L13,10.75s-.77,1.94.34,2.11l-.34,1a2.21,2.21,0,0,1-.68-2.75,3,3,0,0,1,.47-.7l.24-.3-.74-2.86Z"/><path class="cls-3" d="M17.63,9.86s1.07-4.7-2.29-4.1a4.48,4.48,0,0,0-2,.72,1.71,1.71,0,0,0-.54,1.44S13.7,8,14,7.78c0,0,.86-.35.74.45a5.85,5.85,0,0,0,2.93,1.63"/><rect class="cls-5" x="4.01" y="2.91" width="19.83" height="19.55"/></g></g></svg>