<svg width="54" height="54" viewBox="0 0 54 54" fill="none" xmlns="http://www.w3.org/2000/svg">
<rect x="1.4209" y="2.8421" width="51.1579" height="51.1579" rx="25.5789" fill="#0009CC"/>
<path d="M27.0001 12.7895C21.5063 12.7895 17.0527 17.243 17.0527 22.7368C17.0527 24.5037 17.5272 26.1563 18.3349 27.5936C18.4691 27.8324 18.6097 28.0674 18.7624 28.2937L27.0001 42.6316L35.2378 28.2937C35.3646 28.1059 35.474 27.907 35.5872 27.7105L35.6655 27.5936C36.4725 26.1563 36.9475 24.5037 36.9475 22.7368C36.9475 17.243 32.4935 12.7895 27.0001 12.7895V12.7895ZM27.0001 17.7632C29.7468 17.7632 31.9738 19.99 31.9738 22.7368C31.9738 25.4836 29.7468 27.7105 27.0001 27.7105C24.2533 27.7105 22.0264 25.4836 22.0264 22.7368C22.0264 19.99 24.2533 17.7632 27.0001 17.7632Z" fill="white"/>
<path d="M26.9998 16.5197C23.5662 16.5197 20.7827 19.3033 20.7827 22.7368C20.7827 26.1699 23.5662 28.9539 26.9998 28.9539C30.4329 28.9539 33.2169 26.1699 33.2169 22.7368C33.2169 19.3033 30.4329 16.5197 26.9998 16.5197ZM26.9998 19.0066C29.0602 19.0066 30.7301 20.6766 30.7301 22.7368C30.7301 24.7971 29.0602 26.4671 26.9998 26.4671C24.9395 26.4671 23.2696 24.7971 23.2696 22.7368C23.2696 20.6766 24.9395 19.0066 26.9998 19.0066Z" fill="white"/>
</svg>
